<svg width="36" height="36" viewBox="0 0 36 36" fill="none" xmlns="http://www.w3.org/2000/svg">
<path d="M19.36 34.15C19.791 34.5541 20.2926 34.8243 20.8236 34.9385C21.3545 35.0526 21.8995 35.0075 22.4138 34.8067C22.928 34.6059 23.3967 34.2552 23.7812 33.7836C24.1658 33.3119 24.4552 32.7328 24.6255 32.094C24.7959 31.4551 24.8424 30.7748 24.7611 30.1091C24.6799 29.4433 24.4732 28.8113 24.1582 28.265C23.8432 27.7187 23.4289 27.2738 22.9493 26.9669C22.4698 26.66 21.9387 26.5 21.4 26.5H1M27.35 9.5C27.7847 8.77556 28.3603 8.20203 29.0221 7.83387C29.684 7.46571 30.4102 7.31514 31.1317 7.39647C31.8532 7.47779 32.5461 7.7883 33.1446 8.29852C33.7431 8.80874 34.2273 9.50173 34.5513 10.3117C34.8753 11.1216 35.0283 12.0217 34.9957 12.9263C34.9631 13.8309 34.7461 14.7101 34.3653 15.4804C33.9844 16.2508 33.4523 16.8866 32.8196 17.3276C32.1869 17.7685 31.4744 18 30.75 18H1M14.26 1.85C14.691 1.44595 15.1926 1.1757 15.7236 1.06153C16.2545 0.947355 16.7995 0.992525 17.3138 1.19332C17.828 1.39411 18.2967 1.74477 18.6812 2.21642C19.0658 2.68806 19.3552 3.26717 19.5255 3.90603C19.6959 4.5449 19.7424 5.22522 19.6611 5.89094C19.5799 6.55666 19.3732 7.18871 19.0582 7.73502C18.7432 8.28133 18.3289 8.72624 17.8493 9.03311C17.3698 9.33997 16.8387 9.5 16.3 9.5H1" stroke="white" stroke-width="2" stroke-linecap="round" stroke-linejoin="round"/>
</svg>
