<svg width="34" height="34" viewBox="0 0 34 34" fill="none" xmlns="http://www.w3.org/2000/svg">
<path d="M20.2692 0C17.2746 0 14.7926 1.69085 13.2809 4.046C12.9985 4.00677 12.7304 3.92308 12.4231 3.92308C9.15123 3.92308 6.53846 6.19192 5.68061 9.19438C2.54477 9.31077 0 11.8752 0 15.0385C0 18.2724 2.65069 20.9231 5.88462 20.9231H26.8077C30.7648 20.9231 34 17.6878 34 13.7308C34 10.3635 31.6174 7.63431 28.4828 6.86538C27.7008 2.98023 24.3754 0 20.2692 0ZM20.2692 2.61538C21.7442 2.61132 23.1662 3.16501 24.25 4.16543C25.3339 5.16585 25.9995 6.53903 26.1133 8.00961L26.2349 9.11331L27.2981 9.19438C28.4204 9.30947 29.4599 9.83733 30.215 10.6755C30.9701 11.5138 31.3869 12.6026 31.3846 13.7308C31.3846 16.2729 29.3498 18.3077 26.8077 18.3077H5.88462C5.45457 18.3103 5.02828 18.2275 4.63046 18.0641C4.23264 17.9008 3.87121 17.6601 3.56712 17.356C3.26302 17.0519 3.02231 16.6904 2.85894 16.2926C2.69556 15.8948 2.61278 15.4685 2.61538 15.0385C2.61258 14.567 2.71241 14.1005 2.90796 13.6714C3.1035 13.2424 3.39008 12.861 3.74779 12.5538C4.1055 12.2466 4.52578 12.0209 4.97945 11.8925C5.43313 11.764 5.90933 11.7358 6.375 11.8098L7.76508 12.0556L7.88669 10.6655C7.99232 9.53595 8.51607 8.48655 9.35526 7.72307C10.1945 6.9596 11.2886 6.53712 12.4231 6.53846C12.7631 6.53846 13.1162 6.57377 13.4862 6.66138L14.5062 6.90592L14.9574 5.967C15.4346 4.96271 16.1871 4.11457 17.1275 3.52123C18.0678 2.9279 19.1573 2.61377 20.2692 2.61538ZM27.421 22.0268C26.1787 22.6702 23.3358 23.7085 22.5982 24.8867C22.4202 25.1656 22.2991 25.4769 22.2417 25.8027C22.1844 26.1286 22.1921 26.4626 22.2643 26.7854C22.3365 27.1083 22.4717 27.4138 22.6624 27.6842C22.853 27.9546 23.0952 28.1847 23.375 28.3612C24.5506 29.1001 26.0178 28.6581 26.8482 27.5439C27.5871 26.5527 27.4197 24.6945 27.421 22.0268ZM9.11331 23.3345C7.871 23.9778 5.02808 25.0162 4.29054 26.1944C4.11251 26.4733 3.99136 26.7846 3.93405 27.1104C3.87674 27.4363 3.8844 27.7703 3.95658 28.0931C4.02877 28.416 4.16406 28.7215 4.35467 28.9919C4.54529 29.2623 4.78747 29.4924 5.06731 29.6689C6.24292 30.4078 7.71015 29.9658 8.54054 28.8516C9.27938 27.8604 9.112 26.0022 9.11331 23.3345ZM18.2672 27.2575C17.0248 27.9009 14.1819 28.9392 13.4444 30.1175C13.2664 30.3963 13.1452 30.7077 13.0879 31.0335C13.0306 31.3594 13.0382 31.6933 13.1104 32.0162C13.1826 32.3391 13.3179 32.6445 13.5085 32.915C13.6991 33.1854 13.9413 33.4155 14.2212 33.592C15.3968 34.3308 16.864 33.8888 17.6944 32.7747C18.4332 31.7835 18.2658 29.9252 18.2672 27.2575Z" fill="white"/>
</svg>
