<svg width="34" height="34" viewBox="0 0 34 34" fill="none" xmlns="http://www.w3.org/2000/svg">
<path d="M31.4909 6.2243C31.7837 6.2243 31.9953 5.92159 31.9786 5.58397L31.8815 3.89512L33.1648 4.85487C33.3937 5.03316 33.767 4.96108 33.9293 4.69554C33.967 4.62305 33.9903 4.54262 33.9976 4.45957C34.0048 4.37652 33.9959 4.29273 33.9714 4.21373C33.9469 4.13472 33.9073 4.0623 33.8553 4.00124C33.8034 3.94017 33.7401 3.89185 33.6698 3.85946L32.2713 3.11215L33.6858 2.34739C33.8169 2.2739 33.9161 2.14662 33.9618 1.99338C34.0074 1.84014 33.9957 1.67338 33.9293 1.52952C33.7996 1.24501 33.3931 1.1919 33.1655 1.3702L31.8808 2.34739L31.9953 0.622127C32.003 0.544288 31.9958 0.465538 31.974 0.390935C31.9523 0.316333 31.9165 0.247527 31.869 0.188939C31.8215 0.130351 31.7634 0.0832758 31.6983 0.0507371C31.6331 0.0181985 31.5625 0.000916036 31.4909 0C31.1496 0 30.9547 0.284509 30.9707 0.622127L31.0678 2.34739L29.7511 1.36868C29.5236 1.19115 29.1823 1.20935 29.0193 1.52876C28.8736 1.79582 28.9381 2.1691 29.2475 2.34739L30.6453 3.11139L29.2475 3.8587C28.9381 4.00058 28.857 4.39206 29.0033 4.69402C29.1497 4.97853 29.5236 5.0324 29.7511 4.85411L31.0685 3.89436L30.9866 5.58321C30.9707 5.92083 31.1496 6.22355 31.4909 6.22355M1.4775 13.1413C3.81872 12.3234 6.2418 11.9145 8.55042 11.9145C11.5416 11.9145 13.7365 12.4304 16.5654 12.4304C19.4921 12.4304 21.313 10.2605 21.313 7.43366C21.313 4.53546 19.2805 2.47182 16.777 2.47182C14.9234 2.47182 13.2974 3.73504 12.6148 5.42388C12.3546 6.01111 12.4525 6.70456 13.0213 7.02472C13.5416 7.30923 14.1756 7.13094 14.5169 6.4026C14.8748 5.4952 15.7524 4.78355 16.777 4.78355C18.1262 4.78355 19.1834 5.81537 19.1834 7.43366C19.1834 9.05195 18.1588 10.1187 16.5654 10.1187C13.8669 10.1187 11.6394 9.58531 8.55042 9.58531C5.9005 9.58531 3.21729 10.1012 0.827509 10.9358C0.144219 11.1497 -0.115917 11.7901 0.0471016 12.4122C0.209426 13.0169 0.746347 13.3727 1.4775 13.1413ZM26.907 21.4634C30.6946 21.4634 33.3778 18.8315 33.3778 15.1511C33.3778 11.523 30.825 8.89186 27.6548 8.89186C24.7121 8.89186 22.5332 11.1323 22.1427 14.0836C22.0456 14.8127 22.4195 15.3999 23.0043 15.4887C23.6064 15.5775 24.1267 15.1685 24.2564 14.3324C24.5332 12.4835 25.9476 11.2028 27.6548 11.2028C29.6388 11.2028 31.2481 12.8211 31.2481 15.1503C31.2481 17.5159 29.541 19.1516 26.907 19.1516C21.9478 19.1516 16.5987 16.0577 10.0953 16.0577C6.74612 16.0577 3.6897 16.6442 0.827509 17.7648C0.161562 18.0136 -0.115223 18.6357 0.0477954 19.2586C0.21012 19.8625 0.762995 20.2366 1.4782 19.9695C4.12811 18.8671 6.89249 18.3869 10.0953 18.3869C16.5827 18.3869 21.4275 21.4634 26.907 21.4634ZM16.582 33.9992C19.0863 33.9992 21.0203 31.972 21.0203 29.0738C21.0203 24.8775 17.1023 22.5301 9.88371 22.5301C6.85919 22.5301 3.59189 23.1704 0.827509 24.2197C0.160868 24.4686 -0.115917 25.0907 0.0471016 25.7128C0.209426 26.3175 0.762302 26.6915 1.4775 26.4245C4.06291 25.4109 6.957 24.8593 9.88371 24.8593C15.785 24.8593 18.9066 26.4776 18.9066 29.0738C18.9066 30.7096 17.8661 31.6875 16.582 31.6875C15.2973 31.6875 14.5169 30.7452 14.2894 29.2521C14.1922 28.5936 13.7531 28.061 13.0539 28.1141C12.322 28.1672 12.0293 28.8424 12.1271 29.5541C12.4199 32.0259 14.0944 34 16.582 34M31.4909 30.8173C31.7837 30.8173 31.9953 30.5153 31.9786 30.177L31.8815 28.4881L33.1648 29.4479C33.3937 29.6261 33.767 29.5541 33.9293 29.2885C33.9665 29.2159 33.9893 29.1355 33.9963 29.0526C34.0032 28.9697 33.9942 28.8862 33.9697 28.8073C33.9453 28.7285 33.9059 28.6562 33.8543 28.595C33.8026 28.5339 33.7398 28.4853 33.6698 28.4524L32.2713 27.7051L33.6858 26.9411C33.8171 26.8676 33.9165 26.7402 33.9621 26.5868C34.0077 26.4334 33.9959 26.2664 33.9293 26.1225C33.7996 25.838 33.3931 25.7849 33.1655 25.9632L31.8808 26.9411L31.9953 25.2341C32.0272 24.8775 31.7837 24.5937 31.4909 24.5937C31.1496 24.5937 30.9547 24.8783 30.9707 25.2341L31.0678 26.9411L29.7511 25.9624C29.5236 25.7849 29.1823 25.8205 29.0193 26.1225C28.8736 26.3896 28.9381 26.7628 29.2475 26.9411L30.6453 27.7051L29.2475 28.4524C29.1792 28.4872 29.1182 28.537 29.0684 28.5989C29.0186 28.6607 28.981 28.7331 28.9581 28.8116C28.9351 28.8901 28.9273 28.9729 28.9351 29.0549C28.9429 29.1368 28.9661 29.2161 29.0033 29.2878C29.1497 29.5723 29.5236 29.6261 29.7511 29.4479L31.0685 28.4881L30.9866 30.177C30.9707 30.5153 31.1496 30.8173 31.4909 30.8173Z" fill="white"/>
</svg>
