<svg width="37" height="37" viewBox="0 0 37 37" fill="none" xmlns="http://www.w3.org/2000/svg">
<path d="M23.125 3.08334C23.9428 3.08334 24.727 3.40819 25.3052 3.98643C25.8835 4.56467 26.2083 5.34893 26.2083 6.16668V13.875H29.2917C30.1094 13.875 30.8937 14.1999 31.4719 14.7781C32.0501 15.3563 32.375 16.1406 32.375 16.9583V32.2208C32.375 32.4435 32.3311 32.6641 32.2459 32.8698C32.1607 33.0756 32.0358 33.2625 31.8783 33.42C31.7208 33.5775 31.5339 33.7024 31.3281 33.7876C31.1224 33.8728 30.9019 33.9167 30.6792 33.9167H6.32083C6.09813 33.9167 5.87761 33.8728 5.67187 33.7876C5.46612 33.7024 5.27917 33.5775 5.1217 33.42C4.96423 33.2625 4.83931 33.0756 4.75409 32.8698C4.66886 32.6641 4.625 32.4435 4.625 32.2208V6.16668C4.625 5.34893 4.94985 4.56467 5.52809 3.98643C6.10632 3.40819 6.89058 3.08334 7.70833 3.08334H23.125ZM23.125 6.16668H7.70833V30.8333H10.7917V26.2083C10.7917 24.9817 11.2789 23.8053 12.1463 22.938C13.0137 22.0706 14.19 21.5833 15.4167 21.5833C16.6433 21.5833 17.8197 22.0706 18.687 22.938C19.5544 23.8053 20.0417 24.9817 20.0417 26.2083V30.8333H23.125V6.16668ZM29.2917 16.9583H26.2083V30.8333H29.2917V16.9583ZM15.4167 24.6667C15.0391 24.6667 14.6746 24.8054 14.3924 25.0563C14.1102 25.3072 13.93 25.653 13.8858 26.028L13.875 26.2083V30.8333H16.9583V26.2083C16.9583 25.7995 16.7959 25.4073 16.5068 25.1182C16.2177 24.8291 15.8255 24.6667 15.4167 24.6667ZM15.4167 9.25001C15.8255 9.25001 16.2177 9.41244 16.5068 9.70155C16.7959 9.99067 16.9583 10.3828 16.9583 10.7917V12.3333H18.5C18.9089 12.3333 19.301 12.4958 19.5901 12.7849C19.8792 13.074 20.0417 13.4661 20.0417 13.875C20.0417 14.2839 19.8792 14.676 19.5901 14.9651C19.301 15.2543 18.9089 15.4167 18.5 15.4167H16.9583V16.9583C16.9583 17.3672 16.7959 17.7593 16.5068 18.0485C16.2177 18.3376 15.8255 18.5 15.4167 18.5C15.0078 18.5 14.6157 18.3376 14.3265 18.0485C14.0374 17.7593 13.875 17.3672 13.875 16.9583V15.4167H12.3333C11.9245 15.4167 11.5323 15.2543 11.2432 14.9651C10.9541 14.676 10.7917 14.2839 10.7917 13.875C10.7917 13.4661 10.9541 13.074 11.2432 12.7849C11.5323 12.4958 11.9245 12.3333 12.3333 12.3333H13.875V10.7917C13.875 10.3828 14.0374 9.99067 14.3265 9.70155C14.6157 9.41244 15.0078 9.25001 15.4167 9.25001Z" fill="#677AF7"/>
</svg>
