<svg width="32" height="33" viewBox="0 0 32 33" fill="none" xmlns="http://www.w3.org/2000/svg">
<path fill-rule="evenodd" clip-rule="evenodd" d="M28.923 16.5C28.923 25.6129 21.5359 33 12.423 33C8.62117 33.0045 4.93514 31.6921 1.99169 29.2858L0.366439 27.9576C-0.384311 27.3438 0.102439 26.1294 1.06769 26.2036L3.15989 26.362C4.34789 26.4511 5.57549 26.3785 6.72224 26.1541C5.39584 24.9204 4.33829 23.4262 3.61574 21.765C2.89319 20.1039 2.52118 18.3115 2.52299 16.5C2.52299 7.38705 9.91168 0 19.023 0C22.978 0 26.613 1.3926 29.4559 3.7158L31.0812 5.0424C31.8319 5.6562 31.3452 6.8706 30.3799 6.79635L28.2877 6.63795C27.0963 6.54967 25.8984 6.61958 24.7254 6.84585C26.0515 8.07976 27.1087 9.57402 27.831 11.2352C28.5532 12.8963 28.925 14.6886 28.923 16.5ZM15.723 21.45C17.0358 21.45 18.2949 20.9285 19.2232 20.0002C20.1515 19.0719 20.673 17.8128 20.673 16.5C20.673 15.1872 20.1515 13.9281 19.2232 12.9998C18.2949 12.0715 17.0358 11.55 15.723 11.55C14.4102 11.55 13.1511 12.0715 12.2228 12.9998C11.2945 13.9281 10.773 15.1872 10.773 16.5C10.773 17.8128 11.2945 19.0719 12.2228 20.0002C13.1511 20.9285 14.4102 21.45 15.723 21.45Z" fill="#677AF7"/>
</svg>
