<svg width="35" height="35" viewBox="0 0 35 35" fill="none" xmlns="http://www.w3.org/2000/svg">
<path d="M7.35 11.2C3.31065 11.2 0 14.5005 0 18.529C0 20.09 0.4984 21.5408 1.34225 22.7332L6.4533 31.5686C7.16905 32.5038 7.64505 32.3264 8.2404 31.5196L13.8775 21.9261C13.9913 21.7196 14.0805 21.5005 14.1586 21.2765C14.516 20.4046 14.6999 19.4713 14.7 18.529C14.7 14.5005 11.3904 11.2 7.35 11.2ZM7.35 14.6342C9.5256 14.6342 11.256 16.3601 11.256 18.5294C11.256 20.6987 9.52525 22.4238 7.35 22.4238C5.17475 22.4238 3.444 20.6983 3.444 18.5294C3.444 16.3604 5.1751 14.6342 7.35 14.6342ZM30.7125 0C28.3563 0 26.425 1.92535 26.425 4.2756C26.425 5.18595 26.7155 6.03225 27.208 6.7277L30.1896 11.8818C30.6072 12.4271 30.8847 12.3235 31.2319 11.8531L34.5202 6.2566C34.5867 6.13655 34.6388 6.0088 34.684 5.8779C34.8931 5.36963 35.0005 4.82523 35 4.2756C35 1.925 33.0694 0 30.7125 0ZM30.7125 2.0034C31.9816 2.0034 32.991 3.01 32.991 4.2756C32.991 5.5412 31.9816 6.5471 30.7125 6.5471C29.4434 6.5471 28.434 5.54085 28.434 4.2756C28.434 3.01035 29.4438 2.0034 30.7125 2.0034Z" fill="#677AF7"/>
<path fill-rule="evenodd" clip-rule="evenodd" d="M30.8732 13.0942C30.0867 13.1117 29.2982 13.1449 28.5082 13.2034L28.63 15.1396C29.3889 15.0846 30.149 15.0492 30.9096 15.0335L30.8732 13.0942ZM26.6819 13.3812C25.4674 13.532 24.2424 13.7469 23.0314 14.0924L23.4875 15.9687C24.5879 15.6551 25.7282 15.4525 26.8863 15.3086L26.6819 13.3812ZM21.2181 14.742C20.8552 14.9021 20.5039 15.0873 20.1667 15.296L20.1653 15.2978L20.1632 15.2985C19.6819 15.6016 19.1748 15.9862 18.7607 16.5452C18.4608 16.9501 18.2154 17.4622 18.158 18.0677L19.9413 18.2654C19.9546 18.1233 20.0274 17.9357 20.1583 17.7593H20.159V17.7586C20.37 17.473 20.6864 17.2137 21.0627 16.9764L21.0641 16.9757C21.3325 16.8105 21.6117 16.6636 21.8999 16.5361L21.2181 14.742ZM20.3 19.1292L19.144 20.6115C19.418 20.8621 19.7054 21.0546 19.9829 21.2156L19.9864 21.2173L19.9899 21.2194C20.9111 21.7434 21.861 22.0391 22.7416 22.3198L23.2477 20.4585C22.3675 20.1778 21.5376 19.9069 20.8264 19.503C20.6227 19.3847 20.4442 19.2612 20.3 19.1292ZM24.9673 20.9821L24.4731 22.8466L24.7069 22.9194L24.9939 23.0111C25.9438 23.3201 26.8538 23.6502 27.6672 24.1069L28.4925 22.3849C27.509 21.8323 26.488 21.4711 25.5042 21.1512L25.5014 21.1505L25.2067 21.0563L24.9673 20.9821ZM30.1707 23.6771L28.9027 25.0491C29.2023 25.3736 29.4266 25.7638 29.5358 26.167L29.5365 26.1691L29.5372 26.1723C29.6674 26.643 29.6678 27.1967 29.5659 27.756L31.3243 28.1312C31.4678 27.3416 31.4909 26.4747 31.255 25.6189C31.0496 24.8622 30.6576 24.2049 30.1707 23.6771ZM28.952 28.925C28.758 29.1294 28.5439 29.3137 28.3129 29.4752H28.3122C27.6822 29.9183 26.9514 30.2522 26.1751 30.5392L26.754 32.3746C27.6031 32.0607 28.475 31.6757 29.2898 31.1024L29.2919 31.1006L29.2929 31.0999C29.6275 30.8655 29.937 30.5973 30.2166 30.2995L28.952 28.925ZM24.528 31.0562C23.4035 31.3586 22.2541 31.5889 21.0907 31.7842L21.3651 33.7018C22.5624 33.5006 23.7647 33.2601 24.9596 32.9388L24.528 31.0562ZM19.3403 32.0488C18.1692 32.2087 16.9918 32.3393 15.8109 32.4506L15.9656 34.3833C17.1647 34.2706 18.3659 34.1379 19.5654 33.9738L19.3403 32.0488ZM14.0361 32.6028C12.8527 32.6966 11.6666 32.7729 10.4794 32.8373L10.569 34.7749C11.7677 34.7102 12.9675 34.6328 14.167 34.5376L14.0361 32.6028ZM8.69544 32.9248C7.98389 32.9581 7.27059 32.9854 6.55554 33.0106L6.61434 34.9499C7.33386 34.9252 8.05324 34.8965 8.77244 34.8638L8.69544 32.9248Z" fill="#677AF7"/>
</svg>
