<svg width="31" height="26" viewBox="0 0 31 26" fill="none" xmlns="http://www.w3.org/2000/svg">
<path d="M23.25 20.6611C25.3424 20.6611 26.6598 21.3124 27.8223 21.9014C28.8298 22.4439 29.605 22.8311 31 22.8311V25.8535C28.8767 25.8535 27.5902 25.2032 26.4277 24.6143C25.4202 24.0718 24.645 23.6836 23.25 23.6836C21.9015 23.6836 21.0798 24.1028 20.0723 24.6143C18.9098 25.2032 17.6388 25.8535 15.5 25.8535C13.3612 25.8535 12.0902 25.2032 10.9277 24.6143C9.92023 24.0718 9.114 23.6836 7.75 23.6836C6.386 23.6836 5.57977 24.1028 4.57227 24.6143C3.40984 25.2032 2.09232 25.8535 0 25.8535V22.8311C1.364 22.8311 2.17023 22.4129 3.17773 21.9014C4.34017 21.3124 5.61115 20.6611 7.75 20.6611C9.88885 20.6611 11.1598 21.3124 12.3223 21.9014C13.3298 22.4439 14.105 22.8311 15.5 22.8311C16.8485 22.8311 17.6702 22.4129 18.6777 21.9014C19.8402 21.3124 21.1576 20.6611 23.25 20.6611ZM23.25 13.7637C25.3424 13.7637 26.6598 14.4149 27.8223 15.0039C28.8298 15.5464 29.605 15.9336 31 15.9336V18.9561C28.8767 18.9561 27.5902 18.3058 26.4277 17.7168C25.4202 17.1743 24.645 16.7861 23.25 16.7861C21.855 16.7861 21.0798 17.1743 20.0723 17.7168C18.9098 18.2903 17.6388 18.9561 15.5 18.9561C13.3612 18.9561 12.0902 18.3058 10.9277 17.7168C9.92023 17.1743 9.145 16.7861 7.75 16.7861C6.355 16.7861 5.57977 17.1743 4.57227 17.7168C3.40984 18.2903 2.09232 18.9561 0 18.9561V15.9336C1.364 15.9336 2.17023 15.4999 3.17773 15.0039C4.34017 14.4304 5.61114 13.7637 7.75 13.7637C9.88886 13.7637 11.1598 14.4149 12.3223 15.0039C13.3298 15.5464 14.105 15.9336 15.5 15.9336C16.8485 15.9336 17.6702 15.4999 18.6777 15.0039C19.8402 14.4304 21.1576 13.7637 23.25 13.7637ZM23.25 6.86621C25.3424 6.86621 26.6598 7.51747 27.8223 8.10645C28.8298 8.64894 29.605 9.03613 31 9.03613V12.0586C28.8767 12.0586 27.5901 11.4083 26.4277 10.8193C25.4202 10.2768 24.645 9.88867 23.25 9.88867C21.9015 9.88867 21.0798 10.3233 20.0723 10.8193C18.9099 11.3928 17.6388 12.0586 15.5 12.0586C13.3612 12.0586 12.0901 11.4083 10.9277 10.8193C9.92023 10.2768 9.0985 9.88867 7.75 9.88867C6.4015 9.88867 5.57977 10.3233 4.57227 10.8193C3.40985 11.3928 2.0923 12.0586 0 12.0586V9.03613C1.395 9.03613 2.17023 8.64894 3.17773 8.10645C4.34018 7.53297 5.61113 6.86621 7.75 6.86621C9.88888 6.86621 11.1598 7.51747 12.3223 8.10645C13.3298 8.64894 14.105 9.03613 15.5 9.03613C16.895 9.03613 17.6702 8.64894 18.6777 8.10645C19.8402 7.53297 21.1576 6.86621 23.25 6.86621ZM23.25 0C25.3734 1.46182e-07 26.6598 0.651247 27.8223 1.24023C28.8298 1.75173 29.605 2.13867 31 2.13867V5.16113C28.8767 5.16113 27.5901 4.51083 26.4277 3.92188C25.4202 3.37937 24.645 2.99121 23.25 2.99121C21.9015 2.99121 21.0798 3.42587 20.0723 3.92188C18.9099 4.49534 17.6388 5.16113 15.5 5.16113C13.3612 5.16113 12.0901 4.51083 10.9277 3.92188C9.92023 3.37937 9.114 2.99121 7.75 2.99121C6.386 2.99121 5.57977 3.41037 4.57227 3.92188C3.40985 4.49534 2.0923 5.16113 0 5.16113V2.16992C1.364 2.16992 2.17023 1.75173 3.17773 1.24023C4.34021 0.651247 5.61106 0 7.75 0C9.88894 4.95261e-08 11.1598 0.666745 12.3223 1.24023C13.3298 1.78273 14.105 2.16992 15.5 2.16992C16.8485 2.16992 17.6702 1.73623 18.6777 1.24023C19.8402 0.651247 21.1266 0 23.25 0Z" fill="white"/>
</svg>
