<svg width="35" height="35" viewBox="0 0 35 35" fill="none" xmlns="http://www.w3.org/2000/svg">
<path d="M28.4375 14.2188H32.8125V16.4062H28.4375V14.2188ZM25.1563 8.29719L28.2494 5.20406L29.7959 6.75063L26.7028 9.84375L25.1563 8.29719ZM25.1563 22.3278L26.7028 20.7812L29.7959 23.8744L28.2494 25.4209L25.1563 22.3278ZM18.5938 2.1875H20.7813V6.5625H18.5938V2.1875ZM19.6875 8.75C19.3208 8.7522 18.955 8.78512 18.5938 8.84844V11.0928C18.9503 10.995 19.3178 10.9428 19.6875 10.9375C20.8478 10.9375 21.9606 11.3984 22.7811 12.2189C23.6016 13.0394 24.0625 14.1522 24.0625 15.3125C24.0625 16.4728 23.6016 17.5856 22.7811 18.4061C21.9606 19.2266 20.8478 19.6875 19.6875 19.6875V21.875C21.428 21.875 23.0972 21.1836 24.3279 19.9529C25.5586 18.7222 26.25 17.053 26.25 15.3125C26.25 13.572 25.5586 11.9028 24.3279 10.6721C23.0972 9.4414 21.428 8.75 19.6875 8.75ZM10.9375 22.0763V7.65625H8.75001V22.0763C8.02024 22.3343 7.40518 22.842 7.01353 23.5096C6.62189 24.1772 6.47887 24.9618 6.60976 25.7247C6.74065 26.4876 7.13702 27.1796 7.72882 27.6786C8.32061 28.1775 9.06972 28.4511 9.84376 28.4511C10.6178 28.4511 11.3669 28.1775 11.9587 27.6786C12.5505 27.1796 12.9469 26.4876 13.0778 25.7247C13.2086 24.9618 13.0656 24.1772 12.674 23.5096C12.2823 22.842 11.6673 22.3343 10.9375 22.0763Z" fill="#677AF7"/>
<path d="M9.84372 32.8125C8.33651 32.8142 6.86239 32.3705 5.60647 31.5373C4.35055 30.704 3.36883 29.5182 2.78457 28.1288C2.20031 26.7395 2.03956 25.2084 2.32252 23.728C2.60547 22.2476 3.31951 20.8838 4.37497 19.8078V7.65625C4.37497 6.20585 4.95115 4.81485 5.97673 3.78926C7.00232 2.76367 8.39332 2.1875 9.84372 2.1875C11.2941 2.1875 12.6851 2.76367 13.7107 3.78926C14.7363 4.81485 15.3125 6.20585 15.3125 7.65625V19.8078C16.3679 20.8838 17.082 22.2476 17.3649 23.728C17.6479 25.2084 17.4871 26.7395 16.9029 28.1288C16.3186 29.5182 15.3369 30.704 14.081 31.5373C12.8251 32.3705 11.3509 32.8142 9.84372 32.8125ZM9.84372 4.375C8.97375 4.37587 8.13966 4.72185 7.52449 5.33702C6.90932 5.95218 6.56334 6.78627 6.56247 7.65625V20.7627L6.19935 21.0897C5.37344 21.8279 4.79117 22.7995 4.52961 23.8759C4.26805 24.9523 4.33955 26.0827 4.73462 27.1176C5.1297 28.1525 5.82973 29.043 6.74206 29.6713C7.65439 30.2995 8.736 30.6359 9.84372 30.6359C10.9515 30.6359 12.0331 30.2995 12.9454 29.6713C13.8577 29.043 14.5578 28.1525 14.9528 27.1176C15.3479 26.0827 15.4194 24.9523 15.1578 23.8759C14.8963 22.7995 14.314 21.8279 13.4881 21.0897L13.125 20.7627V7.65625C13.1241 6.78627 12.7781 5.95218 12.163 5.33702C11.5478 4.72185 10.7137 4.37587 9.84372 4.375Z" fill="#677AF7"/>
</svg>
