<svg width="38" height="38" viewBox="0 0 38 38" fill="none" xmlns="http://www.w3.org/2000/svg">
<path d="M33.7778 0H4.22222C3.10242 0 2.02848 0.44484 1.23666 1.23666C0.44484 2.02848 0 3.10242 0 4.22222L0 27.4444H38V4.22222C38 3.10242 37.5552 2.02848 36.7633 1.23666C35.9715 0.44484 34.8976 0 33.7778 0Z" fill="#F4900C"/>
<path d="M10.5555 38V7.38888L14.7778 3.16666H16.8889L21.1111 7.38888V38H10.5555ZM34.8333 11.6111C34.8333 10.5555 33.7778 10.5555 33.7778 10.5555H26.3889C26.3889 10.5555 25.3333 10.5555 25.3333 11.6111V38H34.8333V11.6111Z" fill="#485359"/>
<path d="M29.5556 17.9445C29.5556 16.8889 28.5 16.8889 28.5 16.8889H20.0556C19 16.8889 19 17.9445 19 17.9445V38H29.5556V17.9445ZM11.6111 20.0556H6.33333V14.7778C6.33333 14.7778 6.33333 13.7222 5.27778 13.7222H0V33.7778C0 34.8976 0.44484 35.9715 1.23666 36.7633C2.02848 37.5552 3.10242 38 4.22222 38H12.6667V21.1111C12.6667 21.1111 12.6667 20.0556 11.6111 20.0556ZM33.7778 26.3889C32.7222 26.3889 32.7222 27.4445 32.7222 27.4445V38H33.7778C34.8976 38 35.9715 37.5552 36.7633 36.7633C37.5552 35.9715 38 34.8976 38 33.7778V26.3889H33.7778Z" fill="#292F33"/>
<path d="M8.44449 30.6111H10.5556V32.7222H8.44449V30.6111ZM8.44449 22.1667H10.5556V24.2778H8.44449V22.1667ZM6.33337 26.3889H8.44449V28.5H6.33337V26.3889ZM16.8889 9.5H19V11.6111H16.8889V9.5ZM16.8889 13.7222H19V15.8333H16.8889V13.7222ZM14.7778 17.9444H16.8889V20.0556H14.7778V17.9444ZM25.3334 19H27.4445V21.1111H25.3334V19ZM23.2223 23.2222H25.3334V25.3333H23.2223V23.2222ZM21.1112 29.5556H23.2223V31.6667H21.1112V29.5556ZM30.6112 12.6667H32.7223V14.7778H30.6112V12.6667ZM30.6112 16.8889H32.7223V19H30.6112V16.8889Z" fill="#FFCC4D"/>
</svg>
