<svg width="38" height="38" viewBox="0 0 38 38" fill="none" xmlns="http://www.w3.org/2000/svg">
<path d="M5.42857 0C3.98882 0 2.60805 0.571937 1.58999 1.58999C0.571937 2.60805 0 3.98882 0 5.42857V16.0469L0.4085 16.6169L0 17.2656V21.9111L0.920143 23.1339L0 24.2182V29.8571H38V24.0798L37.2224 23.1339L38 22.2599V17.2289L37.3065 16.4296L38 15.9478V5.42857C38 3.98882 37.4281 2.60805 36.41 1.58999C35.392 0.571937 34.0112 0 32.5714 0H5.42857Z" fill="#533566"/>
<path d="M0 27.1429V32.5714C0 33.6531 0.316214 34.6614 0.861786 35.5069C9.5 35.1676 31.2279 35.5069 37.1708 35.4554C37.696 34.6221 37.9986 33.6354 38 32.5769V27.1429C37.0554 27.1429 36.5479 27.4346 36.005 27.7481C35.3807 28.1105 34.7049 28.5 33.25 28.5C31.7951 28.5 31.1193 28.1105 30.495 27.7481C29.9521 27.436 29.4446 27.1429 28.5 27.1429C27.4821 27.1429 26.8036 27.4821 26.125 27.8214C25.4464 28.1607 24.7679 28.5 23.75 28.5C22.7321 28.5 22.0536 28.1607 21.375 27.8214C20.6964 27.4821 20.0179 27.1429 19 27.1429C17.9821 27.1429 17.3036 27.4821 16.625 27.8214C15.9464 28.1607 15.2679 28.5 14.25 28.5C13.2321 28.5 12.5536 28.1607 11.875 27.8214C11.1964 27.4821 10.5179 27.1429 9.5 27.1429C8.48214 27.1429 7.80357 27.4821 7.125 27.8214C6.44643 28.1607 5.76786 28.5 4.75 28.5C3.73214 28.5 3.05357 28.1607 2.375 27.8214C1.69643 27.4821 1.01786 27.1429 0 27.1429Z" fill="#468CFB"/>
<path d="M16.9643 8.82144C17.6448 8.82167 18.3146 8.6513 18.9123 8.32592C19.51 8.00053 20.0166 7.5305 20.3858 6.95881C20.755 6.38712 20.975 5.732 21.0257 5.05334C21.0764 4.37469 20.9562 3.69415 20.6761 3.07394C21.2759 3.3454 21.801 3.75831 22.2063 4.27724C22.6116 4.79618 22.885 5.40567 23.003 6.05345C23.121 6.70123 23.0802 7.36798 22.884 7.99651C22.6878 8.62504 22.3421 9.1966 21.8765 9.6622C21.4109 10.1278 20.8393 10.4735 20.2108 10.6697C19.5822 10.8659 18.9155 10.9068 18.2677 10.7887C17.6199 10.6707 17.0104 10.3973 16.4915 9.99206C15.9726 9.58678 15.5597 9.06168 15.2882 8.4618C15.7999 8.69251 16.3671 8.82144 16.9643 8.82144Z" fill="#FCD53F"/>
<path d="M0 17.3077V15.8962C2.47136 15.1322 4.06193 13.3584 5.092 11.5398C5.77871 10.3292 6.20486 9.11322 6.46 8.19444C6.59309 7.71164 6.7018 7.22245 6.78571 6.72872C6.78571 6.36879 6.9287 6.02359 7.18321 5.76908C7.43773 5.51457 7.78292 5.37158 8.14286 5.37158C8.50279 5.37158 8.84799 5.51457 9.1025 5.76908C9.35702 6.02359 9.5 6.36879 9.5 6.72872C9.51668 6.85064 9.5375 6.97194 9.56243 7.09244C9.614 7.35708 9.69814 7.73708 9.82571 8.19444C10.0809 9.11322 10.507 10.3292 11.1937 11.5412C12.559 13.9514 14.9123 16.2857 19 16.2857C23.0877 16.2857 25.441 13.9514 26.8076 11.5412C27.493 10.3292 27.9205 9.11187 28.1743 8.19444C28.3026 7.73205 28.4086 7.26375 28.4919 6.79115L28.5 6.72872C28.5156 6.37964 28.6653 6.05004 28.9178 5.80854C29.1704 5.56704 29.5064 5.43226 29.8558 5.43226C30.2052 5.43226 30.5412 5.56704 30.7937 5.80854C31.0463 6.05004 31.1959 6.37964 31.2116 6.72872L31.2211 6.79115L31.2754 7.09244C31.3269 7.35708 31.4111 7.73708 31.5386 8.19444C31.7938 9.11322 32.2199 10.3292 32.9066 11.5412C33.9354 13.3584 35.5259 15.1322 37.9986 15.8949V17.3063C37.0354 17.0571 36.1188 16.6538 35.2844 16.112V21.7143H37.9986V24.4286H31.2129V32.5714H28.4986V24.4286H9.5V32.5714H6.78571V24.4286H0V21.7143H2.71429V16.1134C1.87982 16.6552 0.963225 17.0585 0 17.3077ZM27.9884 12.2089C27.4018 13.2619 26.6591 14.22 25.7857 15.0507V21.7143H28.5V11.2182C28.3462 11.5457 28.1765 11.8759 27.9884 12.2089ZM24.4286 16.1147C23.5941 16.6565 22.6775 17.0598 21.7143 17.309V21.7143H24.4286V16.1147ZM20.3571 17.5655C19.9238 17.6171 19.4714 17.6429 19 17.6429C18.5286 17.6429 18.0762 17.6162 17.6429 17.5628V21.7143H20.3571V17.5655ZM16.2857 17.3077C15.3225 17.0585 14.4059 16.6552 13.5714 16.1134V21.7143H16.2857V17.3077ZM12.2143 15.0507C11.341 14.2204 10.5984 13.2628 10.0116 12.2102C9.82882 11.8865 9.65815 11.556 9.5 11.2195V21.7143H12.2143V15.0507ZM31.2143 21.7143H33.9286V15.0507C33.0556 14.2199 32.3135 13.2618 31.7273 12.2089C31.5373 11.8759 31.3663 11.5457 31.2143 11.2182V21.7143ZM6.78571 21.7143V11.2182C6.63191 11.5457 6.46136 11.8759 6.27407 12.2089C5.68748 13.2619 4.94485 14.22 4.07143 15.0507V21.7143H6.78571Z" fill="#F92F60"/>
<path d="M5.42855 32.5714C5.06862 32.5714 4.72342 32.7144 4.46891 32.9689C4.2144 33.2235 4.07141 33.5686 4.07141 33.9286V36.6429H12.2143V33.9286C12.2143 33.5686 12.0713 33.2235 11.8168 32.9689C11.5623 32.7144 11.2171 32.5714 10.8571 32.5714H5.42855ZM27.1428 32.5714C26.7829 32.5714 26.4377 32.7144 26.1832 32.9689C25.9287 33.2235 25.7857 33.5686 25.7857 33.9286V36.6429H33.9286V33.9286C33.9286 33.5686 33.7856 33.2235 33.5311 32.9689C33.2765 32.7144 32.9313 32.5714 32.5714 32.5714H27.1428Z" fill="#E6E6E6"/>
<path d="M5.42855 38H32.5714C34.6071 38 36.3782 36.8803 37.3078 35.2246C36.7731 35.1228 36.3986 34.9071 36.005 34.6804C35.3807 34.3181 34.7048 33.9286 33.25 33.9286C31.7951 33.9286 31.1193 34.3181 30.495 34.6804C29.9521 34.9926 29.4446 35.2857 28.5 35.2857C27.5554 35.2857 27.0478 34.9939 26.505 34.6804C25.8807 34.3181 25.2048 33.9286 23.75 33.9286C22.2951 33.9286 21.6193 34.3181 20.995 34.6804C20.4521 34.9926 19.9446 35.2857 19 35.2857C17.9821 35.2857 17.3036 34.9464 16.625 34.6071C15.9464 34.2678 15.2678 33.9286 14.25 33.9286C13.2321 33.9286 12.5536 34.2678 11.875 34.6071C11.1964 34.9464 10.5178 35.2857 9.49998 35.2857C8.48212 35.2857 7.80355 34.9464 7.12498 34.6071C6.44641 34.2678 5.76784 33.9286 4.74998 33.9286C3.73212 33.9286 3.05355 34.2678 2.37498 34.6071C1.86334 34.8636 1.3517 35.1188 0.693481 35.2287C1.16549 36.0695 1.85294 36.7695 2.68515 37.2566C3.51736 37.7436 4.46429 38.0002 5.42855 38Z" fill="#00A6ED"/>
</svg>
