<svg width="38" height="38" viewBox="0 0 38 38" fill="none" xmlns="http://www.w3.org/2000/svg">
<path d="M0 5.42857C0 3.98882 0.571937 2.60805 1.58999 1.58999C2.60805 0.571937 3.98882 0 5.42857 0H32.5714C34.0112 0 35.392 0.571937 36.41 1.58999C37.4281 2.60805 38 3.98882 38 5.42857V24.4286L0 17.6429V5.42857Z" fill="#9F70B8"/>
<path d="M6.73816 38H9.48909L14.9285 36.6428V7.12499C14.9285 6.18856 14.1685 5.42856 13.2321 5.42856H11.1964C10.2599 5.42856 9.49995 6.18856 9.49995 7.12499V8.14284H4.41066C3.47423 8.14284 2.71423 8.90284 2.71423 9.83927V35.9168L6.73816 38ZM21.7142 36.6428L25.7802 38H28.5081L35.2857 35.9168V20.6964C35.2857 19.76 34.5257 19 33.5892 19H23.4107C22.4742 19 21.7142 19.76 21.7142 20.6964V36.6428Z" fill="#433B6B"/>
<path d="M0 16.2857V32.5714C0 34.0112 0.571937 35.392 1.58999 36.41C2.60805 37.4281 3.98882 38 5.42857 38H6.78571V17.9822C6.78571 17.0457 6.02571 16.2857 5.08929 16.2857H0ZM9.5 38H25.7857V30.1964C25.7857 29.26 25.0257 28.5 24.0893 28.5H23.0714V13.9107C23.0714 12.9743 22.3114 12.2143 21.375 12.2143H11.1964C10.26 12.2143 9.5 12.9743 9.5 13.9107V38ZM28.5 38H32.5714C34.0112 38 35.392 37.4281 36.41 36.41C37.4281 35.392 38 34.0112 38 32.5714V23.0714H30.1964C29.26 23.0714 28.5 23.8314 28.5 24.7679V38Z" fill="#635994"/>
<path d="M12.8929 14.9286C12.7129 14.9286 12.5403 15 12.4131 15.1273C12.2858 15.2546 12.2143 15.4272 12.2143 15.6071V16.9643C12.2143 17.1442 12.2858 17.3168 12.4131 17.4441C12.5403 17.5714 12.7129 17.6428 12.8929 17.6428H14.25C14.43 17.6428 14.6026 17.5714 14.7299 17.4441C14.8571 17.3168 14.9286 17.1442 14.9286 16.9643V15.6071C14.9286 15.4272 14.8571 15.2546 14.7299 15.1273C14.6026 15 14.43 14.9286 14.25 14.9286H12.8929ZM2.03575 24.4286C1.85578 24.4286 1.68318 24.5 1.55593 24.6273C1.42867 24.7546 1.35718 24.9272 1.35718 25.1071V26.4643C1.35718 26.6442 1.42867 26.8168 1.55593 26.9441C1.68318 27.0714 1.85578 27.1428 2.03575 27.1428H3.39289C3.57286 27.1428 3.74546 27.0714 3.87271 26.9441C3.99997 26.8168 4.07146 26.6442 4.07146 26.4643V25.1071C4.07146 24.9272 3.99997 24.7546 3.87271 24.6273C3.74546 24.5 3.57286 24.4286 3.39289 24.4286H2.03575ZM12.2143 21.0357C12.2143 20.8557 12.2858 20.6831 12.4131 20.5559C12.5403 20.4286 12.7129 20.3571 12.8929 20.3571H14.25C14.43 20.3571 14.6026 20.4286 14.7299 20.5559C14.8571 20.6831 14.9286 20.8557 14.9286 21.0357V22.3928C14.9286 22.5728 14.8571 22.7454 14.7299 22.8727C14.6026 22.9999 14.43 23.0714 14.25 23.0714H12.8929C12.7129 23.0714 12.5403 22.9999 12.4131 22.8727C12.2858 22.7454 12.2143 22.5728 12.2143 22.3928V21.0357ZM12.8929 31.2143C12.7129 31.2143 12.5403 31.2858 12.4131 31.413C12.2858 31.5403 12.2143 31.7129 12.2143 31.8928V33.25C12.2143 33.43 12.2858 33.6026 12.4131 33.7298C12.5403 33.8571 12.7129 33.9286 12.8929 33.9286H14.25C14.43 33.9286 14.6026 33.8571 14.7299 33.7298C14.8571 33.6026 14.9286 33.43 14.9286 33.25V31.8928C14.9286 31.7129 14.8571 31.5403 14.7299 31.413C14.6026 31.2858 14.43 31.2143 14.25 31.2143H12.8929ZM17.6429 21.0357C17.6429 20.8557 17.7144 20.6831 17.8416 20.5559C17.9689 20.4286 18.1415 20.3571 18.3215 20.3571H19.6786C19.8586 20.3571 20.0312 20.4286 20.1584 20.5559C20.2857 20.6831 20.3572 20.8557 20.3572 21.0357V22.3928C20.3572 22.5728 20.2857 22.7454 20.1584 22.8727C20.0312 22.9999 19.8586 23.0714 19.6786 23.0714H18.3215C18.1415 23.0714 17.9689 22.9999 17.8416 22.8727C17.7144 22.7454 17.6429 22.5728 17.6429 22.3928V21.0357ZM18.3215 25.7857C18.1415 25.7857 17.9689 25.8572 17.8416 25.9844C17.7144 26.1117 17.6429 26.2843 17.6429 26.4643V27.8214C17.6429 28.0014 17.7144 28.174 17.8416 28.3012C17.9689 28.4285 18.1415 28.5 18.3215 28.5H19.6786C19.8586 28.5 20.0312 28.4285 20.1584 28.3012C20.2857 28.174 20.3572 28.0014 20.3572 27.8214V26.4643C20.3572 26.2843 20.2857 26.1117 20.1584 25.9844C20.0312 25.8572 19.8586 25.7857 19.6786 25.7857H18.3215ZM29.8572 27.1428C29.8572 26.7829 30.0002 26.4377 30.2547 26.1832C30.5092 25.9287 30.8544 25.7857 31.2143 25.7857H38V28.5H31.2143C30.8544 28.5 30.5092 28.357 30.2547 28.1025C30.0002 27.848 29.8572 27.5028 29.8572 27.1428ZM31.2143 31.2143C30.8544 31.2143 30.5092 31.3573 30.2547 31.6118C30.0002 31.8663 29.8572 32.2115 29.8572 32.5714C29.8572 32.9314 30.0002 33.2765 30.2547 33.5311C30.5092 33.7856 30.8544 33.9286 31.2143 33.9286H38V31.2143H31.2143Z" fill="#FFF478"/>
<path d="M12.8929 14.9286C12.7129 14.9286 12.5403 15 12.4131 15.1273C12.2858 15.2546 12.2143 15.4272 12.2143 15.6071H13.5715C13.7514 15.6071 13.924 15.6786 14.0513 15.8059C14.1785 15.9331 14.25 16.1057 14.25 16.2857V17.6428C14.43 17.6428 14.6026 17.5714 14.7299 17.4441C14.8571 17.3168 14.9286 17.1442 14.9286 16.9643V15.6071C14.9286 15.4272 14.8571 15.2546 14.7299 15.1273C14.6026 15 14.43 14.9286 14.25 14.9286H12.8929ZM2.03575 24.4286C1.85578 24.4286 1.68318 24.5 1.55593 24.6273C1.42867 24.7546 1.35718 24.9272 1.35718 25.1071H2.71432C2.89429 25.1071 3.06689 25.1786 3.19414 25.3059C3.3214 25.4331 3.39289 25.6057 3.39289 25.7857V27.1428C3.57286 27.1428 3.74546 27.0714 3.87271 26.9441C3.99997 26.8168 4.07146 26.6442 4.07146 26.4643V25.1071C4.07146 24.9272 3.99997 24.7546 3.87271 24.6273C3.74546 24.5 3.57286 24.4286 3.39289 24.4286H2.03575ZM12.2143 21.0357C12.2143 20.8557 12.2858 20.6831 12.4131 20.5559C12.5403 20.4286 12.7129 20.3571 12.8929 20.3571H14.25C14.43 20.3571 14.6026 20.4286 14.7299 20.5559C14.8571 20.6831 14.9286 20.8557 14.9286 21.0357V22.3928C14.9286 22.5728 14.8571 22.7454 14.7299 22.8727C14.6026 22.9999 14.43 23.0714 14.25 23.0714V21.7143C14.25 21.5343 14.1785 21.3617 14.0513 21.2344C13.924 21.1072 13.7514 21.0357 13.5715 21.0357H12.2143ZM12.8929 31.2143C12.7129 31.2143 12.5403 31.2858 12.4131 31.413C12.2858 31.5403 12.2143 31.7129 12.2143 31.8928H13.5715C13.7514 31.8928 13.924 31.9643 14.0513 32.0916C14.1785 32.2188 14.25 32.3914 14.25 32.5714V33.9286C14.43 33.9286 14.6026 33.8571 14.7299 33.7298C14.8571 33.6026 14.9286 33.43 14.9286 33.25V31.8928C14.9286 31.7129 14.8571 31.5403 14.7299 31.413C14.6026 31.2858 14.43 31.2143 14.25 31.2143H12.8929ZM17.6429 21.0357C17.6429 20.8557 17.7144 20.6831 17.8416 20.5559C17.9689 20.4286 18.1415 20.3571 18.3215 20.3571H19.6786C19.8586 20.3571 20.0312 20.4286 20.1584 20.5559C20.2857 20.6831 20.3572 20.8557 20.3572 21.0357V22.3928C20.3572 22.5728 20.2857 22.7454 20.1584 22.8727C20.0312 22.9999 19.8586 23.0714 19.6786 23.0714V21.7143C19.6786 21.5343 19.6071 21.3617 19.4799 21.2344C19.3526 21.1072 19.18 21.0357 19 21.0357H17.6429ZM18.3215 25.7857C18.1415 25.7857 17.9689 25.8572 17.8416 25.9844C17.7144 26.1117 17.6429 26.2843 17.6429 26.4643H19C19.18 26.4643 19.3526 26.5358 19.4799 26.663C19.6071 26.7903 19.6786 26.9629 19.6786 27.1428V28.5C19.8586 28.5 20.0312 28.4285 20.1584 28.3012C20.2857 28.174 20.3572 28.0014 20.3572 27.8214V26.4643C20.3572 26.2843 20.2857 26.1117 20.1584 25.9844C20.0312 25.8572 19.8586 25.7857 19.6786 25.7857H18.3215ZM31.2143 25.7857C30.9761 25.7857 30.7421 25.8484 30.5358 25.9675C30.3295 26.0866 30.1581 26.258 30.039 26.4643H38V25.7857H31.2143ZM31.2143 31.2143C30.9761 31.2143 30.7421 31.277 30.5358 31.3961C30.3295 31.5152 30.1581 31.6865 30.039 31.8928H38V31.2143H31.2143Z" fill="#FCD53F"/>
<path d="M17.6429 15.6071C17.6429 15.4272 17.7144 15.2546 17.8416 15.1273C17.9689 15 18.1415 14.9286 18.3215 14.9286H19.6786C19.8586 14.9286 20.0312 15 20.1584 15.1273C20.2857 15.2546 20.3572 15.4272 20.3572 15.6071V16.9643C20.3572 17.1442 20.2857 17.3168 20.1584 17.4441C20.0312 17.5714 19.8586 17.6428 19.6786 17.6428H18.3215C18.1415 17.6428 17.9689 17.5714 17.8416 17.4441C17.7144 17.3168 17.6429 17.1442 17.6429 16.9643V15.6071ZM1.35718 19.6786C1.35718 19.4986 1.42867 19.326 1.55593 19.1987C1.68318 19.0715 1.85578 19 2.03575 19H3.39289C3.57286 19 3.74546 19.0715 3.87271 19.1987C3.99997 19.326 4.07146 19.4986 4.07146 19.6786V21.0357C4.07146 21.2157 3.99997 21.3883 3.87271 21.5155C3.74546 21.6428 3.57286 21.7143 3.39289 21.7143H2.03575C1.85578 21.7143 1.68318 21.6428 1.55593 21.5155C1.42867 21.3883 1.35718 21.2157 1.35718 21.0357V19.6786ZM1.35718 30.5357C1.35718 30.3557 1.42867 30.1831 1.55593 30.0559C1.68318 29.9286 1.85578 29.8571 2.03575 29.8571H3.39289C3.57286 29.8571 3.74546 29.9286 3.87271 30.0559C3.99997 30.1831 4.07146 30.3557 4.07146 30.5357V31.8928C4.07146 32.0728 3.99997 32.2454 3.87271 32.3727C3.74546 32.4999 3.57286 32.5714 3.39289 32.5714H2.03575C1.85578 32.5714 1.68318 32.4999 1.55593 32.3727C1.42867 32.2454 1.35718 32.0728 1.35718 31.8928V30.5357ZM12.8929 25.7857C12.7129 25.7857 12.5403 25.8572 12.4131 25.9844C12.2858 26.1117 12.2143 26.2843 12.2143 26.4643V27.8214C12.2143 28.0014 12.2858 28.174 12.4131 28.3012C12.5403 28.4285 12.7129 28.5 12.8929 28.5H14.25C14.43 28.5 14.6026 28.4285 14.7299 28.3012C14.8571 28.174 14.9286 28.0014 14.9286 27.8214V26.4643C14.9286 26.2843 14.8571 26.1117 14.7299 25.9844C14.6026 25.8572 14.43 25.7857 14.25 25.7857H12.8929ZM18.3215 31.2143C18.1415 31.2143 17.9689 31.2858 17.8416 31.413C17.7144 31.5403 17.6429 31.7129 17.6429 31.8928V33.25C17.6429 33.43 17.7144 33.6026 17.8416 33.7298C17.9689 33.8571 18.1415 33.9286 18.3215 33.9286H19.6786C19.8586 33.9286 20.0312 33.8571 20.1584 33.7298C20.2857 33.6026 20.3572 33.43 20.3572 33.25V31.8928C20.3572 31.7129 20.2857 31.5403 20.1584 31.413C20.0312 31.2858 19.8586 31.2143 19.6786 31.2143H18.3215Z" fill="#321B41"/>
<path d="M25.1071 29.8572C25.1071 29.6772 25.0356 29.5046 24.9084 29.3773C24.7811 29.2501 24.6085 29.1786 24.4285 29.1786H22.7321C22.6421 29.1786 22.5558 29.1428 22.4922 29.0792C22.4286 29.0156 22.3928 28.9293 22.3928 28.8393V13.5714C22.3928 13.3915 22.3213 13.2189 22.1941 13.0916C22.0668 12.9644 21.8942 12.8929 21.7143 12.8929L17.6428 12.2143H21.7143C22.0742 12.2143 22.4194 12.3573 22.6739 12.6118C22.9284 12.8663 23.0714 13.2115 23.0714 13.5714V28.5H24.4285C24.7885 28.5 25.1337 28.643 25.3882 28.8975C25.6427 29.152 25.7857 29.4972 25.7857 29.8572V38H25.1071V29.8572Z" fill="#7167A4"/>
</svg>
