<svg width="38" height="38" viewBox="0 0 38 38" fill="none" xmlns="http://www.w3.org/2000/svg">
<path d="M35.6254 38H2.3746C1.06415 38 0 36.9359 0 35.6254V2.37461C0 1.06415 1.06415 0 2.3746 0H35.6254C36.9358 0 38 1.06415 38 2.37461V35.6254C38.0032 36.9359 36.939 38 35.6254 38Z" fill="url(#paint0_radial_2155_289)"/>
<path d="M37 18.7228H31.0712V25.611H17.9312V5H8.08939V25.611H6.69145V14.5445H3V27.9837H5.96439V36H36.2729V32.4992H37V18.7228Z" fill="#A47FCD"/>
<path d="M9 7H9.73717V9H9V7ZM10.5708 7H11.339V9H10.5708V7ZM13 7H12.2473V9L12.9813 8.99473L13 7Z" fill="#3F737B"/>
<path d="M15 7L14 7.00264L14.0269 9H14.9923L15 7Z" fill="#A363B0"/>
<path d="M9 7H9.73488V9H9V7ZM10.5659 7H11.3318V9H10.5659V7ZM13 7H12.2372V9L12.9907 8.99473L13 7Z" fill="#FDE064"/>
<path d="M15 11L14 11.0026L14.0269 13H14.9923L15 11Z" fill="#A463B0"/>
<path d="M9 11H10V13H9V11Z" fill="#FDE064"/>
<path d="M10.5659 11H11.3318V13.3247H10.5659V11ZM13 11H12.2372V13.3247L12.9907 13.3185L13 11ZM9 14.6753H9.73488V17H9V14.6753ZM10.5659 14.6753H11.3318V17H10.5659V14.6753ZM13 14.6753H12.2372V17L12.9907 16.9939L13 14.6753Z" fill="#A463B0"/>
<path d="M16.0039 7L16 9H17V7H16.0039Z" fill="#A363B0"/>
<path d="M32 24H33.0012V25H32V24ZM33.9988 24H35V25H33.9988V24Z" fill="#A463B0"/>
<path d="M32 22H33V23H32V22Z" fill="#FDE064"/>
<path d="M34 22H35V23H34V22Z" fill="#A463B0"/>
<path d="M32 19H33.0012V21H32V19ZM33.9988 19H35V21H33.9988V19Z" fill="#FDE064"/>
<path d="M35.1138 14.5697C35.0002 14.7982 35.1138 27.9343 35.1138 27.9343H30.1025V20.4226H28.4889V18.022H27.0585V15.9844H24.4818V18.1252H22.8429V20.3694H21.1504V31.3083H19.5589V19.1018H20.301V16.7731H19.5589V11.95H18.7221L17.5822 8.45704H15.337L14.2097 11.95H13.3287V16.7731H12.5456V19.1018H13.3287V31.3083H11.0615V20.3381H4.22819V8.01886C4.22819 8.01886 0.0126309 7.99069 0 8.00321V35.6463C0 36.9452 1.06415 38 2.37461 38H35.6254C36.9359 38 38 36.9452 38 35.6463V14.5697H35.1138Z" fill="#505050"/>
<path d="M1 35.3411H10V36H1V35.3411ZM1 33H10V33.6589H1V33Z" fill="#A463B0"/>
<path d="M1 30.1812H10V31H1V30.1812ZM1 27.2718H10V28.0906H1V27.2718ZM1 23.9094H10V24.7282H1V23.9094ZM1 21H10V21.8188H1V21Z" fill="#FDE064"/>
<path d="M2.54639 18.0039H3V19H2.54639V18.0039ZM1 16.0036H1.45361V16.9997H1V16.0036ZM2.54639 16.0036H3V16.9997H2.54639V16.0036ZM1 14.0033H1.45361V14.9994H1V14.0033ZM2.54639 14.0033H3V14.9994H2.54639V14.0033ZM1 12.003H1.45361V12.9991H1V12.003ZM2.54639 12.003H3V12.9991H2.54639V12.003ZM1 10H1.45361V10.9961H1V10Z" fill="#FDE064"/>
<path d="M15 19H15.7077V20.5051H15V19ZM16.6773 19H17.385V20.5051H16.6773V19ZM18.2923 19H19V20.5051H18.2923V19ZM15 21.8458H15.7077V23.351H15V21.8458ZM15 29.4949H15.7077V31H15V29.4949Z" fill="#FDE064"/>
<path d="M17 29.5202H17.6094V31H17V29.5202ZM18.3906 29.5202H19V31H18.3906V29.5202ZM17 22H17.6094V23.4798H17V22Z" fill="#A463B0"/>
<path d="M18 22H19V23H18V22Z" fill="#FDE064"/>
<path d="M15 24H16V26H15V24Z" fill="#A463B0"/>
<path d="M17 24H17.6094V26H17V24ZM18.3906 24H19V26H18.3906V24Z" fill="#FDE064"/>
<path d="M16.0379 16H17.999V13.8332C17.999 13.8332 18.0705 13.0191 17.01 13.0003C16.0126 12.9815 16 13.8144 16 13.8144C16 13.8144 16.0631 16 16.0379 16Z" fill="#A463B0"/>
<path d="M23.9715 19H24.6052V21.9346H23.9715V19ZM26.3473 19H26.981V21.9346H26.3473V19ZM25.172 19H25.8057V21.9346H25.172V19ZM23 23.0642H23.6337V24H23V23.0642ZM25.1831 23.0642H25.8169V24H25.1831V23.0642ZM27.3663 23.0642H28V24H27.3663V23.0642Z" fill="#FDE064"/>
<path d="M25.1831 26H25.8169V26.9856H25.1831V26ZM27.3663 26H28V26.9856H27.3663V26ZM23 29.0144H23.6337V30H23V29.0144ZM25.1831 29.0144H25.8169V30H25.1831V29.0144ZM27.3663 29.0144H28V30H27.3663V29.0144Z" fill="#FDE064"/>
<path d="M25 32H26V33H25V32Z" fill="#FDE064"/>
<path d="M27.3663 32H28V32.9841H27.3663V32ZM23 35.0159H23.6337V36H23V35.0159ZM25.1831 35.0159H25.8169V36H25.1831V35.0159ZM27.3663 35.0159H28V36H27.3663V35.0159Z" fill="#A463B0"/>
<defs>
<radialGradient id="paint0_radial_2155_289" cx="0" cy="0" r="1" gradientUnits="userSpaceOnUse" gradientTransform="translate(19.7133 42.0921) scale(42.5916 42.5916)">
<stop offset="0.408" stop-color="white"/>
<stop offset="0.463" stop-color="#FFF478"/>
<stop offset="0.536" stop-color="#FFCC4D"/>
<stop offset="0.621" stop-color="#FFB02E"/>
<stop offset="0.713" stop-color="#A964A9"/>
<stop offset="0.727" stop-color="#F6F6F6"/>
<stop offset="0.772" stop-color="#C6C6C6"/>
<stop offset="0.861" stop-color="#FDE064"/>
<stop offset="0.944" stop-color="#00A6ED"/>
</radialGradient>
</defs>
</svg>
